<svg width="100" height="100" viewBox="0 0 100 100" fill="none" xmlns="http://www.w3.org/2000/svg">
<path d="M42.875 16.0832L7.5833 74.9999C6.85567 76.26 6.47066 77.6886 6.46659 79.1437C6.46251 80.5988 6.83951 82.0296 7.56008 83.2937C8.28064 84.5579 9.31965 85.6113 10.5737 86.3493C11.8278 87.0872 13.2533 87.4839 14.7083 87.4999H85.2916C86.7466 87.4839 88.1721 87.0872 89.4262 86.3493C90.6803 85.6113 91.7193 84.5579 92.4399 83.2937C93.1604 82.0296 93.5374 80.5988 93.5333 79.1437C93.5293 77.6886 93.1443 76.26 92.4166 74.9999L57.125 16.0832C56.3822 14.8587 55.3363 13.8462 54.0883 13.1436C52.8403 12.4409 51.4322 12.0718 50 12.0718C48.5677 12.0718 47.1597 12.4409 45.9116 13.1436C44.6636 13.8462 43.6178 14.8587 42.875 16.0832V16.0832Z" stroke="#B40909" stroke-width="10" stroke-linecap="round" stroke-linejoin="round"/>
<path d="M50 37.5V54.1667" stroke="#B40909" stroke-width="10" stroke-linecap="round" stroke-linejoin="round"/>
<path d="M50 70.8335H50.0417" stroke="#B40909" stroke-width="10" stroke-linecap="round" stroke-linejoin="round"/>
</svg>
