<svg width="282" height="40" viewBox="0 0 282 40" fill="none" xmlns="http://www.w3.org/2000/svg">
<g id="BrandIcon_with_wordmark">
<g id="METAFETCH">
<path d="M47.7686 8.68072H52.3642L60.5988 16.9443L68.8333 8.68072H73.429V31.3402H68.8333V15.0451L60.5988 22.9752L52.3642 15.0451V31.3402H47.7686V8.68072Z" fill="#002C33"/>
<path d="M79.8803 8.68072H99.1764V12.711H84.476V17.2342H97.4947V21.018H84.476V27.3244H99.4808V31.3402H79.8803V8.68072Z" fill="#002C33"/>
<path d="M111.412 12.711H103.047V8.68072H124.373V12.711H116.008V31.3402H111.412V12.711Z" fill="#002C33"/>
<path d="M137.015 8.68072H141.886L152.846 31.3402H148.018L146.206 27.5274H132.97L131.216 31.3402H126.373L137.015 8.68072ZM144.394 23.7435L139.494 13.4504L134.724 23.7435H144.394Z" fill="#002C33"/>
<path d="M156.369 8.68072H176.636V12.711H160.964V18.6405H174.273V22.4243H160.964V31.3402H156.369V8.68072Z" fill="#002C33"/>
<path d="M181.072 8.68072H200.368V12.711H185.668V17.2342H198.687V21.018H185.668V27.3244H200.673V31.3402H181.072V8.68072Z" fill="#002C33"/>
<path d="M212.604 12.711H204.239V8.68072H225.565V12.711H217.2V31.3402H212.604V12.711Z" fill="#002C33"/>
<path d="M229.102 19.8727C229.102 18.2587 229.407 16.7558 230.015 15.364C230.624 13.9626 231.504 12.7497 232.654 11.7252C233.814 10.691 235.225 9.87918 236.887 9.28962C238.559 8.70005 240.449 8.40527 242.556 8.40527C244.402 8.40527 246.093 8.59374 247.63 8.97067C249.176 9.33794 250.611 9.90334 251.936 10.6669L249.819 14.1463C249.423 13.8853 248.964 13.6533 248.442 13.4504C247.929 13.2474 247.378 13.0783 246.789 12.943C246.209 12.798 245.605 12.6868 244.977 12.6095C244.358 12.5322 243.744 12.4935 243.136 12.4935C241.667 12.4935 240.357 12.6772 239.207 13.0444C238.057 13.4021 237.085 13.9095 236.293 14.5667C235.51 15.2142 234.911 15.9923 234.495 16.9008C234.089 17.7996 233.886 18.7903 233.886 19.8727C233.886 20.9939 234.099 22.0232 234.524 22.9607C234.949 23.8982 235.563 24.71 236.365 25.3963C237.177 26.0728 238.163 26.6044 239.323 26.991C240.492 27.3679 241.811 27.5564 243.281 27.5564C243.947 27.5564 244.609 27.508 245.267 27.4114C245.924 27.3147 246.557 27.1843 247.166 27.02C247.784 26.846 248.379 26.643 248.949 26.4111C249.519 26.1694 250.051 25.9085 250.544 25.6282L252.66 29.1076C251.423 29.9001 249.993 30.5235 248.369 30.9778C246.745 31.4223 245.02 31.6446 243.194 31.6446C240.864 31.6446 238.82 31.345 237.061 30.7458C235.302 30.1369 233.833 29.3057 232.654 28.2522C231.475 27.1891 230.586 25.9423 229.986 24.5119C229.397 23.0718 229.102 21.5254 229.102 19.8727Z" fill="#002C33"/>
<path d="M257.72 8.68072H262.316V14.5957H276.407V8.68072H281.017V31.3402H276.407V18.5245H262.316V31.3402H257.72V8.68072Z" fill="#002C33"/>
</g>
<g id="Brand Icon">
<rect id="Rectangle 18" width="40" height="40" fill="#002C33"/>
<path id="Union" fill-rule="evenodd" clip-rule="evenodd" d="M8.74902 8.75L12.124 8.75L12.1241 31.25L8.74904 31.25L8.74902 8.75ZM20 15.4999L15.5 15.4999L15.5 31.2499L20 31.2499L20 15.4999ZM31.25 21.1249L23.375 21.1249L23.375 31.2499L31.25 31.2499L31.25 21.1249Z" fill="#319197"/>
<path id="Union_2" fill-rule="evenodd" clip-rule="evenodd" d="M31.2505 8.75H15.5005V12.125H23.3765V17.7501H31.2515V11.0001H31.2505V8.75Z" fill="#F9FCFC"/>
</g>
</g>
</svg>
