<svg width="64" height="84" viewBox="0 0 64 84" fill="none" xmlns="http://www.w3.org/2000/svg">
<path fill-rule="evenodd" clip-rule="evenodd" d="M11.1998 0.399902C8.44155 0.399902 5.79627 1.49561 3.84589 3.44599C1.89551 5.39637 0.799805 8.04165 0.799805 10.7999V73.1999C0.799805 75.9582 1.89551 78.6035 3.84589 80.5538C5.79627 82.5042 8.44155 83.5999 11.1998 83.5999H52.7998C55.558 83.5999 58.2033 82.5042 60.1537 80.5538C62.1041 78.6035 63.1998 75.9582 63.1998 73.1999V28.5527C63.1992 25.7947 62.1031 23.1498 60.1526 21.1999L42.3998 3.4471C40.4499 1.49659 37.805 0.400491 35.047 0.399902H11.1998ZM37.1998 31.5999C37.1998 30.2208 36.6519 28.8981 35.6767 27.923C34.7016 26.9478 33.3789 26.3999 31.9998 26.3999C30.6207 26.3999 29.298 26.9478 28.3228 27.923C27.3477 28.8981 26.7998 30.2208 26.7998 31.5999V41.9999H16.3998C15.0207 41.9999 13.698 42.5478 12.7228 43.523C11.7477 44.4982 11.1998 45.8208 11.1998 47.1999C11.1998 48.579 11.7477 49.9017 12.7228 50.8769C13.698 51.8521 15.0207 52.3999 16.3998 52.3999H26.7998V62.7999C26.7998 64.179 27.3477 65.5017 28.3228 66.4769C29.298 67.4521 30.6207 67.9999 31.9998 67.9999C33.3789 67.9999 34.7016 67.4521 35.6767 66.4769C36.6519 65.5017 37.1998 64.179 37.1998 62.7999V52.3999H47.5998C48.9789 52.3999 50.3015 51.8521 51.2767 50.8769C52.2519 49.9017 52.7998 48.579 52.7998 47.1999C52.7998 45.8208 52.2519 44.4982 51.2767 43.523C50.3015 42.5478 48.9789 41.9999 47.5998 41.9999H37.1998V31.5999Z" fill="#002C33"/>
</svg>
