<svg width="117" height="156" viewBox="0 0 117 156" fill="none" xmlns="http://www.w3.org/2000/svg">
<path fill-rule="evenodd" clip-rule="evenodd" d="M6.37402 6.55493C2.74457 10.1844 0.705566 15.107 0.705566 20.2398V136.36C0.705566 141.493 2.74457 146.415 6.37402 150.045C10.0035 153.674 14.9261 155.713 20.0589 155.713H97.4722C102.605 155.713 107.528 153.674 111.157 150.045C114.786 146.415 116.826 141.493 116.826 136.36V53.2759C116.824 48.1435 114.785 43.2217 111.155 39.5931L78.1189 6.557C74.4902 2.92729 69.5685 0.887571 64.4361 0.886475H20.0589C14.9261 0.886475 10.0035 2.92548 6.37402 6.55493ZM36.8037 97.0725C38.3003 97.7693 40.0421 98.1176 42.0291 98.1176C44.0676 98.1176 45.7836 97.7564 47.177 97.0338C48.5705 96.2855 49.6156 95.3307 50.3123 94.1695C51.009 92.9825 51.3574 91.7052 51.3574 90.3376C51.3574 88.7893 51.0348 87.512 50.3897 86.5056C49.7704 85.4993 48.9317 84.6864 47.8738 84.0671C46.8158 83.4478 45.6159 82.9188 44.274 82.4801C42.8806 81.9899 41.642 81.5641 40.5582 81.2028C39.4744 80.8158 38.6229 80.3384 38.0036 79.7707C37.3843 79.203 37.0746 78.3901 37.0746 77.3322C37.0746 76.1451 37.4875 75.2162 38.3132 74.5453C39.1648 73.8744 40.2357 73.5518 41.5259 73.5776C42.5322 73.5776 43.3838 73.784 44.0805 74.1969C44.7772 74.6098 45.3062 75.1388 45.6675 75.7839C46.0287 76.4032 46.2094 77.0612 46.2094 77.7579H50.5445C50.5187 76.2355 50.1317 74.9065 49.3833 73.7711C48.635 72.6099 47.5899 71.7068 46.2481 71.0617C44.9321 70.4166 43.3967 70.094 41.642 70.094C39.8615 70.094 38.3003 70.4166 36.9585 71.0617C35.6425 71.681 34.6103 72.5583 33.862 73.6937C33.1394 74.8291 32.7911 76.1581 32.8169 77.6805C32.8169 79.4868 33.333 80.9448 34.3651 82.0544C35.4231 83.164 36.9972 84.0671 39.0874 84.7638C40.1453 85.1251 41.1517 85.4605 42.1065 85.7702C43.0612 86.0798 43.8999 86.4282 44.6224 86.8153C45.3707 87.2023 45.9513 87.6926 46.3642 88.2861C46.8029 88.8796 47.0222 89.6538 47.0222 90.6085C47.0222 91.7955 46.5706 92.7761 45.6675 93.5502C44.7901 94.2986 43.5644 94.6727 41.9904 94.6727C40.2098 94.6727 38.8293 94.1695 37.8487 93.1632C36.8682 92.1568 36.365 90.9311 36.3392 89.486H32.004C32.0298 91.2665 32.4556 92.8019 33.2814 94.0921C34.1329 95.3824 35.307 96.3758 36.8037 97.0725ZM13.6329 95.9888C15.1296 97.408 17.1423 98.1176 19.6711 98.1176C22.1226 98.1176 24.0579 97.4338 25.4771 96.0662C26.8964 94.6727 27.606 92.6987 27.606 90.1441V70.5585H23.5031V90.1441C23.5031 91.4085 23.2063 92.4535 22.6128 93.2793C22.0193 94.0792 21.013 94.4792 19.5937 94.4792C18.1487 94.4792 17.1036 94.0534 16.4585 93.2019C15.8392 92.3503 15.5295 91.2794 15.5295 89.9892H11.4266C11.4266 92.5697 12.162 94.5695 13.6329 95.9888ZM68.3454 98.1176C65.6617 98.1176 63.3135 97.5241 61.3007 96.3371C59.288 95.1501 57.7139 93.5115 56.5785 91.4214C55.4431 89.3054 54.8754 86.8669 54.8754 84.1058C54.8754 81.3447 55.4431 78.9191 56.5785 76.829C57.7139 74.713 59.288 73.0615 61.3007 71.8745C63.3135 70.6875 65.6617 70.094 68.3454 70.094C71.029 70.094 73.3772 70.6875 75.39 71.8745C77.4027 73.0615 78.9639 74.713 80.0735 76.829C81.2089 78.9191 81.7766 81.3447 81.7766 84.1058C81.7766 86.8669 81.2089 89.3054 80.0735 91.4214C78.9639 93.5115 77.4027 95.1501 75.39 96.3371C73.3772 97.5241 71.029 98.1176 68.3454 98.1176ZM68.3454 94.4405C70.2033 94.4405 71.816 94.0276 73.1837 93.2019C74.5771 92.3761 75.6609 91.1891 76.435 89.6409C77.2092 88.0926 77.5962 86.2476 77.5962 84.1058C77.5962 81.9641 77.2092 80.119 76.435 78.5708C75.6609 77.0225 74.5771 75.8355 73.1837 75.0098C71.816 74.184 70.2033 73.7711 68.3454 73.7711C66.4874 73.7711 64.8618 74.184 63.4683 75.0098C62.0749 75.8355 60.9911 77.0225 60.217 78.5708C59.4686 80.119 59.0945 81.9641 59.0945 84.1058C59.0945 86.2476 59.4686 88.0926 60.217 89.6409C60.9911 91.1891 62.0749 92.3761 63.4683 93.2019C64.8618 94.0276 66.4874 94.4405 68.3454 94.4405ZM86.3473 70.5585V97.6531H90.4502V77.2547L104.036 97.6531H108.139V70.5585H104.036V90.9569L90.4502 70.5585H86.3473Z" fill="#002C33"/>
</svg>
