<svg width="37" height="36" viewBox="0 0 37 36" fill="none" xmlns="http://www.w3.org/2000/svg">
<path d="M18.4996 11.7001V3.6001H10.3996C9.68353 3.6001 8.99677 3.88456 8.49042 4.39091C7.98407 4.89726 7.69961 5.58401 7.69961 6.3001V19.8001H17.5996C18.3157 19.8001 19.0024 20.0846 19.5088 20.5909C20.0151 21.0973 20.2996 21.784 20.2996 22.5001C20.2996 23.2162 20.0151 23.9029 19.5088 24.4093C19.0024 24.9156 18.3157 25.2001 17.5996 25.2001H7.69961V29.7001C7.69961 30.4162 7.98407 31.1029 8.49042 31.6093C8.99677 32.1156 9.68353 32.4001 10.3996 32.4001H26.5996C27.3157 32.4001 28.0025 32.1156 28.5088 31.6093C29.0151 31.1029 29.2996 30.4162 29.2996 29.7001V14.4001H21.1996C20.4835 14.4001 19.7968 14.1156 19.2904 13.6093C18.7841 13.1029 18.4996 12.4162 18.4996 11.7001ZM11.2996 17.1001C11.2996 16.8614 11.3944 16.6325 11.5632 16.4637C11.732 16.2949 11.9609 16.2001 12.1996 16.2001H24.7996C25.0383 16.2001 25.2672 16.2949 25.436 16.4637C25.6048 16.6325 25.6996 16.8614 25.6996 17.1001C25.6996 17.3388 25.6048 17.5677 25.436 17.7365C25.2672 17.9053 25.0383 18.0001 24.7996 18.0001H12.1996C11.9609 18.0001 11.732 17.9053 11.5632 17.7365C11.3944 17.5677 11.2996 17.3388 11.2996 17.1001ZM11.2996 27.9001C11.2996 27.6614 11.3944 27.4325 11.5632 27.2637C11.732 27.0949 11.9609 27.0001 12.1996 27.0001H24.7996C25.0383 27.0001 25.2672 27.0949 25.436 27.2637C25.6048 27.4325 25.6996 27.6614 25.6996 27.9001C25.6996 28.1388 25.6048 28.3677 25.436 28.5365C25.2672 28.7053 25.0383 28.8001 24.7996 28.8001H12.1996C11.9609 28.8001 11.732 28.7053 11.5632 28.5365C11.3944 28.3677 11.2996 28.1388 11.2996 27.9001ZM20.2996 11.7001V4.0501L28.8496 12.6001H21.1996C20.9609 12.6001 20.732 12.5053 20.5632 12.3365C20.3944 12.1677 20.2996 11.9388 20.2996 11.7001ZM4.99961 21.6001C4.76091 21.6001 4.532 21.6949 4.36321 21.8637C4.19443 22.0325 4.09961 22.2614 4.09961 22.5001C4.09961 22.7388 4.19443 22.9677 4.36321 23.1365C4.532 23.3053 4.76091 23.4001 4.99961 23.4001H17.5996C17.8383 23.4001 18.0672 23.3053 18.236 23.1365C18.4048 22.9677 18.4996 22.7388 18.4996 22.5001C18.4996 22.2614 18.4048 22.0325 18.236 21.8637C18.0672 21.6949 17.8383 21.6001 17.5996 21.6001H4.99961Z" fill="#002C33"/>
</svg>
