<svg width="40" height="40" viewBox="0 0 40 40" fill="none" xmlns="http://www.w3.org/2000/svg">
<circle cx="20" cy="20" r="20" fill="#002C33"/>
<path d="M13.333 25.3337V14.667H17.6248C18.8061 14.667 19.7002 14.926 20.3072 15.4441C20.9141 15.9622 21.2175 16.6124 21.2175 17.3946C21.2175 18.0752 21.0225 18.6187 20.6323 19.0251C20.2421 19.4213 19.7707 19.6905 19.218 19.8327C19.6515 19.914 20.0362 20.0765 20.3722 20.3203C20.719 20.5641 20.99 20.8689 21.185 21.2346C21.3801 21.6003 21.4777 21.9965 21.4777 22.4232C21.4777 22.9718 21.3313 23.4695 21.0387 23.9165C20.7569 24.3533 20.3397 24.6987 19.787 24.9527C19.2342 25.2067 18.5569 25.3337 17.7549 25.3337H13.333ZM15.0562 19.2384H17.4135C18.0746 19.2384 18.5785 19.0962 18.9253 18.8118C19.2722 18.5172 19.4456 18.1159 19.4456 17.6079C19.4456 17.1102 19.2722 16.714 18.9253 16.4194C18.5894 16.1248 18.0746 15.9775 17.3809 15.9775H15.0562V19.2384ZM15.0562 24.0079H17.5273C18.2209 24.0079 18.7574 23.8556 19.1367 23.5508C19.5268 23.246 19.7219 22.8194 19.7219 22.2708C19.7219 21.7222 19.5214 21.2905 19.1204 20.9756C18.7194 20.6505 18.1775 20.4879 17.4947 20.4879H15.0562V24.0079Z" fill="#F9FCFC"/>
<path d="M23.3015 25.3337V17.7756H24.8459L24.9922 19.2079C25.274 18.7102 25.6641 18.3191 26.1627 18.0346C26.672 17.74 27.2844 17.5927 27.9997 17.5927V19.2841H27.5282C27.0514 19.2841 26.6233 19.3603 26.2439 19.5127C25.8755 19.6549 25.5774 19.9038 25.3498 20.2594C25.1331 20.6048 25.0247 21.0873 25.0247 21.707V25.3337H23.3015Z" fill="#F9FCFC"/>
</svg>
