<svg width="36" height="36" viewBox="0 0 36 36" fill="none" xmlns="http://www.w3.org/2000/svg">
<path d="M27 24.1957C25.8606 24.1957 24.8328 24.6385 24.0534 25.3513L13.365 19.1179C13.4478 18.7795 13.5 18.4267 13.5 18.0667C13.5 17.7067 13.4478 17.3557 13.365 17.0173L23.94 10.8451C24.7679 11.6252 25.8624 12.0597 27 12.0601C29.4822 12.0601 31.5 10.0423 31.5 7.56006C31.5 5.07786 29.4822 3.06006 27 3.06006C24.5178 3.06006 22.5 5.07786 22.5 7.56006C22.5 7.92006 22.5522 8.27286 22.635 8.60946L12.06 14.7817C11.2316 14.0023 10.1374 13.5679 9 13.5667C6.5178 13.5667 4.5 15.5845 4.5 18.0667C4.5 20.5489 6.5178 22.5667 9 22.5667C10.1375 22.5663 11.2321 22.1318 12.06 21.3517L22.7484 27.5851C22.6697 27.9068 22.6292 28.2367 22.6278 28.5679C22.6282 29.4321 22.8847 30.2768 23.3651 30.9952C23.8455 31.7137 24.528 32.2736 25.3266 32.6041C26.1251 32.9347 27.0037 33.0211 27.8513 32.8524C28.6989 32.6837 29.4774 32.2675 30.0885 31.6564C30.6996 31.0453 31.1158 30.2667 31.2845 29.4191C31.4532 28.5715 31.3668 27.6929 31.0363 26.8944C30.7057 26.0959 30.1458 25.4133 29.4274 24.933C28.709 24.4526 27.8642 24.196 27 24.1957Z" fill="#002C33"/>
</svg>
