<svg width="117" height="156" viewBox="0 0 117 156" fill="none" xmlns="http://www.w3.org/2000/svg">
<path fill-rule="evenodd" clip-rule="evenodd" d="M6.375 6.08765C2.74555 9.7171 0.706543 14.6397 0.706543 19.7725V135.892C0.706543 141.025 2.74555 145.948 6.375 149.577C10.0045 153.207 14.927 155.246 20.0599 155.246H97.4732C102.606 155.246 107.529 153.207 111.158 149.577C114.787 145.948 116.826 141.025 116.826 135.892V52.8086C116.825 47.6762 114.786 42.7544 111.156 39.1258L78.1198 6.08971C74.4912 2.46001 69.5694 0.420286 64.437 0.419189H20.0599C14.927 0.419189 10.0045 2.45819 6.375 6.08765ZM33.1038 105.856C30.4202 105.856 28.0978 105.276 26.1366 104.114C24.2013 102.927 22.7046 101.289 21.6467 99.1987C20.5887 97.0828 20.0597 94.6442 20.0597 91.8832C20.0597 89.0963 20.5887 86.6578 21.6467 84.5676C22.7046 82.4517 24.2013 80.8002 26.1366 79.6132C28.0978 78.4262 30.4202 77.8327 33.1038 77.8327C36.2778 77.8327 38.8711 78.6068 40.8839 80.1551C42.8966 81.7033 44.1739 83.8709 44.7158 86.6578H40.1484C39.7872 85.0837 39.013 83.8322 37.826 82.9032C36.639 81.9743 35.0521 81.5098 33.0651 81.5098C30.3557 81.5098 28.2139 82.4388 26.6398 84.2967C25.0657 86.1288 24.2787 88.6576 24.2787 91.8832C24.2787 95.0829 25.0657 97.5989 26.6398 99.431C28.2139 101.263 30.3557 102.179 33.0651 102.179C35.0521 102.179 36.639 101.74 37.826 100.863C39.013 99.9858 39.7872 98.7859 40.1484 97.2634H44.7158C44.1739 99.9471 42.8966 102.05 40.8839 103.573C38.8711 105.095 36.2778 105.856 33.1038 105.856ZM58.167 105.856C56.18 105.856 54.4382 105.508 52.9416 104.811C51.4449 104.114 50.2708 103.121 49.4193 101.831C48.5935 100.541 48.1678 99.0052 48.142 97.2247H52.4771C52.5029 98.6697 53.0061 99.8955 53.9867 100.902C54.9672 101.908 56.3478 102.411 58.1283 102.411C59.7023 102.411 60.9281 102.037 61.8054 101.289C62.7086 100.515 63.1601 99.5342 63.1601 98.3472C63.1601 97.3924 62.9408 96.6183 62.5021 96.0248C62.0893 95.4313 61.5087 94.941 60.7603 94.5539C60.0378 94.1669 59.1992 93.8185 58.2444 93.5089C57.2896 93.1992 56.2833 92.8637 55.2253 92.5025C53.1351 91.8058 51.561 90.9026 50.5031 89.793C49.4709 88.6834 48.9548 87.2255 48.9548 85.4192C48.929 83.8967 49.2774 82.5678 49.9999 81.4324C50.7482 80.297 51.7804 79.4196 53.0964 78.8003C54.4382 78.1552 55.9994 77.8327 57.7799 77.8327C59.5346 77.8327 61.07 78.1552 62.386 78.8003C63.7278 79.4454 64.7729 80.3486 65.5212 81.5098C66.2696 82.6452 66.6566 83.9741 66.6824 85.4966H62.3473C62.3473 84.7999 62.1667 84.1418 61.8054 83.5225C61.4441 82.8774 60.9152 82.3484 60.2184 81.9356C59.5217 81.5227 58.6702 81.3163 57.6638 81.3163C56.3736 81.2905 55.3027 81.613 54.4511 82.2839C53.6254 82.9548 53.2125 83.8838 53.2125 85.0708C53.2125 86.1288 53.5222 86.9416 54.1415 87.5093C54.7608 88.077 55.6123 88.5544 56.6961 88.9415C57.7799 89.3027 59.0185 89.7285 60.412 90.2188C61.7538 90.6575 62.9537 91.1865 64.0117 91.8058C65.0697 92.4251 65.9083 93.2379 66.5276 94.2443C67.1727 95.2507 67.4953 96.528 67.4953 98.0762C67.4953 99.4439 67.1469 100.721 66.4502 101.908C65.7535 103.069 64.7084 104.024 63.315 104.772C61.9215 105.495 60.2055 105.856 58.167 105.856ZM69.2123 78.2971L79.2373 105.392H84.1918L94.2168 78.2971H89.8816L81.7145 101.134L73.5861 78.2971H69.2123Z" fill="#002C33"/>
</svg>
