<svg width="117" height="156" viewBox="0 0 117 156" fill="none" xmlns="http://www.w3.org/2000/svg">
<path fill-rule="evenodd" clip-rule="evenodd" d="M6.37549 6.02173C2.74604 9.65118 0.707031 14.5738 0.707031 19.7066V135.827C0.707031 140.959 2.74604 145.882 6.37549 149.511C10.0049 153.141 14.9275 155.18 20.0604 155.18H97.4736C102.606 155.18 107.529 153.141 111.159 149.511C114.788 145.882 116.827 140.959 116.827 135.827V52.7427C116.826 47.6103 114.786 42.6885 111.156 39.0599L78.1203 6.02379C74.4917 2.39409 69.5699 0.354368 64.4375 0.353271H20.0604C14.9275 0.353271 10.0049 2.39228 6.37549 6.02173ZM70.9705 105.519C72.8801 106.68 75.1122 107.26 77.6668 107.26C79.8602 107.26 81.6407 106.873 83.0083 106.099C84.3759 105.325 85.5113 104.228 86.4145 102.809L86.7629 106.796H90.5174V92.0874H79.0215V95.2613H86.3758C86.1435 97.7901 85.3436 99.8158 83.976 101.338C82.6341 102.861 80.6214 103.622 77.9377 103.622C75.2799 103.622 73.151 102.719 71.5511 100.912C69.9513 99.1062 69.1513 96.5902 69.1513 93.3647C69.1513 90.1391 69.9642 87.6103 71.5899 85.7782C73.2155 83.9461 75.4476 83.03 78.2861 83.03C80.1956 83.03 81.7568 83.4429 82.9696 84.2686C84.1824 85.0944 84.9953 86.2298 85.4081 87.6748H90.0529C89.4336 85.0427 88.0918 82.9784 86.0274 81.4817C83.9631 79.9851 81.3826 79.2367 78.2861 79.2367C75.5508 79.2367 73.1768 79.8432 71.1641 81.056C69.1771 82.243 67.6418 83.8944 66.558 86.0104C65.4742 88.1264 64.9323 90.5649 64.9323 93.326C64.9323 96.1128 65.4613 98.5514 66.5193 100.642C67.5773 102.732 69.061 104.357 70.9705 105.519ZM22.8086 106.796V79.7012H26.9115V106.796H22.8086ZM32.4096 106.796V79.7012H37.248L46.4215 97.7385L55.5562 79.7012H60.3946V106.796H56.2916V86.7845L48.0084 102.925H44.8345L36.5126 86.8232V106.796H32.4096Z" fill="#002C33"/>
</svg>
