<svg width="40" height="41" viewBox="0 0 40 41" fill="none" xmlns="http://www.w3.org/2000/svg">
<path d="M5 10.7666H8.33333H35" stroke="#002C33" stroke-width="2" stroke-linecap="round" stroke-linejoin="round"/>
<path d="M13.3333 10.7665V7.43319C13.3333 6.54913 13.6844 5.70129 14.3096 5.07616C14.9347 4.45104 15.7825 4.09985 16.6666 4.09985H23.3333C24.2173 4.09985 25.0652 4.45104 25.6903 5.07616C26.3154 5.70129 26.6666 6.54913 26.6666 7.43319V10.7665M31.6666 10.7665V34.0999C31.6666 34.9839 31.3154 35.8318 30.6903 36.4569C30.0652 37.082 29.2173 37.4332 28.3333 37.4332H11.6666C10.7825 37.4332 9.93468 37.082 9.30956 36.4569C8.68444 35.8318 8.33325 34.9839 8.33325 34.0999V10.7665H31.6666Z" stroke="#002C33" stroke-width="2" stroke-linecap="round" stroke-linejoin="round"/>
<path d="M16.6667 19.0999V29.0999" stroke="#002C33" stroke-width="2" stroke-linecap="round" stroke-linejoin="round"/>
<path d="M23.3333 19.0999V29.0999" stroke="#002C33" stroke-width="2" stroke-linecap="round" stroke-linejoin="round"/>
</svg>
